<svg width="324" height="69" viewBox="0 0 324 69" fill="none" xmlns="http://www.w3.org/2000/svg">
<path d="M48.4416 4.11919C61.623 4.11919 72.3329 14.8291 72.3329 28.0105C72.3329 41.1919 61.623 51.9017 48.4416 51.9017H35.9193C34.1069 58.822 27.8457 64.0945 20.4312 64.0945C11.5337 64.0945 4.44872 56.8448 4.44872 48.1121H12.5223C12.5223 52.5608 16.1472 56.0209 20.4312 56.0209C24.8799 56.0209 28.34 52.3961 28.34 48.1121V44.8167V15.9824H36.4136V43.9929H48.4416C57.3391 43.9929 64.4241 36.7431 64.4241 28.0105C64.4241 19.2778 57.1743 12.028 48.4416 12.028H28.1752H12.1928V4.11919H28.1752H46.2997H48.4416ZM48.4416 0H46.2997H28.1752H12.1928H8.0736V4.11919V12.028V16.1472H12.1928H24.2208V44.8167V48.2769C24.056 50.2541 22.4084 51.9017 20.2664 51.9017C18.1244 51.9017 16.312 50.0893 16.312 47.9473V43.8281H12.1928H4.11919H0V47.9473C0 58.9868 9.06221 68.049 20.1016 68.049C24.5503 68.049 28.9991 66.5661 32.6239 63.765C35.2602 61.623 37.2374 58.9867 38.5556 56.0209H48.1121C55.5266 56.0209 62.6116 53.0551 67.8842 47.7826C73.1567 42.51 76.1226 35.425 76.1226 28.0105C76.1226 20.5959 73.1567 13.5109 67.8842 8.23837C62.9412 2.80105 55.8562 0 48.4416 0ZM40.5328 15.9824H48.4416H48.9359C55.3619 16.312 60.4697 21.4198 60.4697 27.8457C60.4697 34.2716 55.3619 39.5442 48.9359 39.709H48.6064H40.6976V15.9824H40.5328Z" fill="#1F1F1F"/>
<path d="M105.444 17.1155H108.977V28.9048C108.977 29.9946 108.732 30.9413 108.243 31.7448C107.758 32.5484 107.084 33.1676 106.22 33.6024C105.356 34.0372 104.351 34.2546 103.207 34.2546C102.188 34.2546 101.264 34.0757 100.433 33.718C99.607 33.3547 98.9521 32.8043 98.4677 32.0668C97.9834 31.3238 97.744 30.3909 97.7495 29.2681H101.308C101.319 29.7139 101.41 30.0964 101.58 30.4156C101.756 30.7294 101.996 30.9715 102.298 31.1422C102.607 31.3073 102.97 31.3898 103.388 31.3898C103.829 31.3898 104.2 31.2963 104.503 31.1091C104.811 30.9165 105.045 30.6358 105.204 30.267C105.364 29.8983 105.444 29.4442 105.444 28.9048V17.1155ZM111.933 34.0234V17.1155H123.326V20.0628H115.508V24.0917H122.74V27.039H115.508V31.0761H123.359V34.0234H111.933ZM135.34 21.9782C135.274 21.3122 134.991 20.7948 134.49 20.4261C133.989 20.0573 133.309 19.8729 132.451 19.8729C131.867 19.8729 131.375 19.9555 130.973 20.1206C130.571 20.2802 130.263 20.5031 130.048 20.7893C129.839 21.0755 129.735 21.4003 129.735 21.7635C129.724 22.0662 129.787 22.3304 129.925 22.5561C130.068 22.7817 130.263 22.9771 130.511 23.1422C130.758 23.3019 131.045 23.4422 131.369 23.5633C131.694 23.6789 132.041 23.7779 132.41 23.8605L133.929 24.2238C134.666 24.3889 135.343 24.609 135.96 24.8842C136.576 25.1594 137.11 25.4979 137.561 25.8997C138.013 26.3015 138.362 26.7748 138.61 27.3197C138.863 27.8646 138.992 28.4893 138.998 29.1938C138.992 30.2285 138.728 31.1256 138.205 31.8852C137.688 32.6392 136.939 33.2254 135.96 33.6437C134.985 34.0565 133.81 34.2629 132.434 34.2629C131.069 34.2629 129.881 34.0537 128.868 33.6354C127.861 33.2171 127.074 32.5979 126.507 31.7779C125.945 30.9523 125.651 29.9313 125.623 28.7149H129.082C129.121 29.2818 129.283 29.7552 129.57 30.1349C129.861 30.5092 130.249 30.7927 130.734 30.9853C131.223 31.1724 131.777 31.266 132.393 31.266C132.998 31.266 133.524 31.1779 133.97 31.0018C134.421 30.8257 134.771 30.5808 135.018 30.267C135.266 29.9533 135.39 29.5928 135.39 29.1855C135.39 28.8057 135.277 28.4865 135.051 28.2278C134.831 27.9692 134.507 27.749 134.077 27.5674C133.653 27.3857 133.133 27.2206 132.517 27.072L130.676 26.6097C129.25 26.263 128.125 25.7208 127.299 24.9833C126.474 24.2458 126.064 23.2523 126.069 22.0029C126.064 20.9792 126.336 20.0848 126.886 19.3198C127.442 18.5548 128.205 17.9576 129.173 17.5283C130.142 17.099 131.243 16.8843 132.476 16.8843C133.73 16.8843 134.826 17.099 135.761 17.5283C136.703 17.9576 137.435 18.5548 137.957 19.3198C138.48 20.0848 138.75 20.971 138.767 21.9782H135.34ZM151.846 17.1155H155.421V28.0957C155.421 29.3286 155.126 30.4074 154.537 31.332C153.954 32.2567 153.137 32.9777 152.085 33.4951C151.034 34.0069 149.809 34.2629 148.411 34.2629C147.008 34.2629 145.781 34.0069 144.729 33.4951C143.678 32.9777 142.861 32.2567 142.277 31.332C141.694 30.4074 141.402 29.3286 141.402 28.0957V17.1155H144.977V27.7903C144.977 28.4342 145.117 29.0066 145.398 29.5075C145.684 30.0083 146.086 30.4019 146.603 30.6881C147.121 30.9743 147.723 31.1174 148.411 31.1174C149.105 31.1174 149.708 30.9743 150.219 30.6881C150.737 30.4019 151.136 30.0083 151.417 29.5075C151.703 29.0066 151.846 28.4342 151.846 27.7903V17.1155ZM147.148 15.4808L148.899 11.7244H152.151L149.633 15.4808H147.148ZM167.534 21.9782C167.468 21.3122 167.184 20.7948 166.684 20.4261C166.183 20.0573 165.503 19.8729 164.644 19.8729C164.061 19.8729 163.568 19.9555 163.167 20.1206C162.765 20.2802 162.457 20.5031 162.242 20.7893C162.033 21.0755 161.928 21.4003 161.928 21.7635C161.917 22.0662 161.981 22.3304 162.118 22.5561C162.261 22.7817 162.457 22.9771 162.704 23.1422C162.952 23.3019 163.238 23.4422 163.563 23.5633C163.888 23.6789 164.234 23.7779 164.603 23.8605L166.122 24.2238C166.86 24.3889 167.537 24.609 168.153 24.8842C168.77 25.1594 169.303 25.4979 169.755 25.8997C170.206 26.3015 170.556 26.7748 170.803 27.3197C171.056 27.8646 171.186 28.4893 171.191 29.1938C171.186 30.2285 170.922 31.1256 170.399 31.8852C169.881 32.6392 169.133 33.2254 168.153 33.6437C167.179 34.0565 166.004 34.2629 164.628 34.2629C163.263 34.2629 162.074 34.0537 161.061 33.6354C160.054 33.2171 159.267 32.5979 158.7 31.7779C158.139 30.9523 157.844 29.9313 157.817 28.7149H161.276C161.315 29.2818 161.477 29.7552 161.763 30.1349C162.055 30.5092 162.443 30.7927 162.927 30.9853C163.417 31.1724 163.97 31.266 164.587 31.266C165.192 31.266 165.718 31.1779 166.164 31.0018C166.615 30.8257 166.964 30.5808 167.212 30.267C167.46 29.9533 167.584 29.5928 167.584 29.1855C167.584 28.8057 167.471 28.4865 167.245 28.2278C167.025 27.9692 166.7 27.749 166.271 27.5674C165.847 27.3857 165.327 27.2206 164.71 27.072L162.869 26.6097C161.444 26.263 160.318 25.7208 159.493 24.9833C158.667 24.2458 158.257 23.2523 158.263 22.0029C158.257 20.9792 158.53 20.0848 159.08 19.3198C159.636 18.5548 160.398 17.9576 161.367 17.5283C162.336 17.099 163.436 16.8843 164.669 16.8843C165.924 16.8843 167.019 17.099 167.955 17.5283C168.896 17.9576 169.628 18.5548 170.151 19.3198C170.674 20.0848 170.944 20.971 170.96 21.9782H167.534ZM184.97 34.0234H178.977V17.1155H185.02C186.721 17.1155 188.185 17.454 189.412 18.131C190.639 18.8024 191.583 19.7684 192.244 21.0288C192.91 22.2891 193.243 23.7972 193.243 25.5529C193.243 27.3142 192.91 28.8278 192.244 30.0937C191.583 31.3596 190.634 32.331 189.395 33.008C188.163 33.6849 186.688 34.0234 184.97 34.0234ZM182.551 30.9605H184.822C185.878 30.9605 186.767 30.7734 187.488 30.3991C188.215 30.0194 188.76 29.4332 189.123 28.6406C189.492 27.8426 189.676 26.8133 189.676 25.5529C189.676 24.3036 189.492 23.2826 189.123 22.49C188.76 21.6975 188.218 21.1141 187.497 20.7398C186.776 20.3655 185.887 20.1784 184.83 20.1784H182.551V30.9605ZM211.428 25.5695C211.428 27.4133 211.079 28.9819 210.38 30.2753C209.686 31.5687 208.74 32.5567 207.54 33.2391C206.345 33.9161 205.002 34.2546 203.511 34.2546C202.008 34.2546 200.66 33.9134 199.466 33.2309C198.271 32.5484 197.327 31.5604 196.634 30.267C195.94 28.9736 195.594 27.4078 195.594 25.5695C195.594 23.7257 195.94 22.157 196.634 20.8636C197.327 19.5702 198.271 18.585 199.466 17.908C200.66 17.2256 202.008 16.8843 203.511 16.8843C205.002 16.8843 206.345 17.2256 207.54 17.908C208.74 18.585 209.686 19.5702 210.38 20.8636C211.079 22.157 211.428 23.7257 211.428 25.5695ZM207.804 25.5695C207.804 24.3751 207.625 23.3679 207.267 22.5478C206.915 21.7277 206.417 21.1058 205.773 20.682C205.129 20.2582 204.375 20.0463 203.511 20.0463C202.647 20.0463 201.893 20.2582 201.249 20.682C200.605 21.1058 200.104 21.7277 199.746 22.5478C199.394 23.3679 199.218 24.3751 199.218 25.5695C199.218 26.7638 199.394 27.771 199.746 28.5911C200.104 29.4112 200.605 30.0331 201.249 30.4569C201.893 30.8807 202.647 31.0926 203.511 31.0926C204.375 31.0926 205.129 30.8807 205.773 30.4569C206.417 30.0331 206.915 29.4112 207.267 28.5911C207.625 27.771 207.804 26.7638 207.804 25.5695ZM214.076 17.1155H218.485L223.141 28.4755H223.339L227.996 17.1155H232.404V34.0234H228.937V23.0184H228.796L224.421 33.9409H222.06L217.684 22.9771H217.544V34.0234H214.076V17.1155ZM238.924 17.1155V34.0234H235.349V17.1155H238.924ZM256.008 17.1155V34.0234H252.92L245.564 23.3817H245.44V34.0234H241.865V17.1155H245.003L252.301 27.749H252.449V17.1155H256.008ZM270.173 22.5808C270.057 22.1791 269.895 21.8241 269.686 21.5158C269.476 21.2021 269.22 20.9379 268.918 20.7233C268.621 20.5031 268.279 20.3353 267.894 20.2197C267.514 20.1041 267.093 20.0463 266.631 20.0463C265.767 20.0463 265.007 20.261 264.352 20.6903C263.703 21.1196 263.196 21.7443 262.833 22.5643C262.47 23.3789 262.288 24.3751 262.288 25.5529C262.288 26.7308 262.467 27.7325 262.825 28.5581C263.183 29.3837 263.689 30.0139 264.344 30.4487C264.999 30.878 265.772 31.0926 266.664 31.0926C267.473 31.0926 268.164 30.9495 268.736 30.6633C269.314 30.3716 269.754 29.9616 270.057 29.4332C270.365 28.9048 270.519 28.2801 270.519 27.5591L271.246 27.6664H266.887V24.975H273.962V27.105C273.962 28.5911 273.648 29.868 273.021 30.9358C272.393 31.998 271.529 32.8181 270.429 33.396C269.328 33.9684 268.067 34.2546 266.647 34.2546C265.062 34.2546 263.67 33.9051 262.47 33.2061C261.27 32.5016 260.334 31.5027 259.663 30.2092C258.997 28.9103 258.664 27.3692 258.664 25.586C258.664 24.2155 258.862 22.9936 259.258 21.9204C259.66 20.8416 260.222 19.928 260.943 19.1794C261.664 18.4309 262.503 17.8613 263.461 17.4705C264.418 17.0797 265.456 16.8843 266.573 16.8843C267.531 16.8843 268.422 17.0247 269.248 17.3054C270.074 17.5806 270.806 17.9713 271.444 18.4777C272.088 18.9841 272.614 19.5867 273.021 20.2857C273.428 20.9792 273.69 21.7443 273.805 22.5808H270.173ZM287.091 17.1155H290.666V28.0957C290.666 29.3286 290.371 30.4074 289.782 31.332C289.199 32.2567 288.382 32.9777 287.33 33.4951C286.279 34.0069 285.054 34.2629 283.656 34.2629C282.253 34.2629 281.026 34.0069 279.974 33.4951C278.923 32.9777 278.106 32.2567 277.522 31.332C276.939 30.4074 276.647 29.3286 276.647 28.0957V17.1155H280.222V27.7903C280.222 28.4342 280.362 29.0066 280.643 29.5075C280.929 30.0083 281.331 30.4019 281.848 30.6881C282.366 30.9743 282.968 31.1174 283.656 31.1174C284.35 31.1174 284.953 30.9743 285.464 30.6881C285.982 30.4019 286.381 30.0083 286.662 29.5075C286.948 29.0066 287.091 28.4342 287.091 27.7903V17.1155ZM293.607 34.0234V17.1155H305V20.0628H297.182V24.0917H304.414V27.039H297.182V31.0761H305.033V34.0234H293.607ZM307.66 34.0234V31.9017L316.098 20.0628H307.644V17.1155H320.589V19.2372L312.143 31.0761H320.605V34.0234H307.66Z" fill="#1F1F1F"/>
<path d="M104.872 43.1605H106.066V49.6908C106.066 50.3651 105.907 50.967 105.589 51.4968C105.274 52.0233 104.83 52.4391 104.255 52.7441C103.68 53.0459 103.006 53.1968 102.232 53.1968C101.459 53.1968 100.784 53.0459 100.21 52.7441C99.635 52.4391 99.1887 52.0233 98.8709 51.4968C98.5563 50.967 98.3989 50.3651 98.3989 49.6908V43.1605H99.5933V49.5945C99.5933 50.0761 99.6992 50.5047 99.9111 50.8804C100.123 51.2528 100.425 51.5466 100.817 51.7617C101.211 51.9736 101.683 52.0795 102.232 52.0795C102.781 52.0795 103.253 51.9736 103.648 51.7617C104.043 51.5466 104.345 51.2528 104.554 50.8804C104.766 50.5047 104.872 50.0761 104.872 49.5945V43.1605ZM109.3 43.1605L111.843 47.2636H111.92L114.463 43.1605H115.869L112.768 48.092L115.869 53.0234H114.463L111.92 48.9973H111.843L109.3 53.0234H107.894L111.072 48.092L107.894 43.1605H109.3ZM121.027 42.6981L117.849 54.5067H116.808L119.987 42.6981H121.027ZM129.272 43.1605H130.467V49.6908C130.467 50.3651 130.308 50.967 129.99 51.4968C129.675 52.0233 129.231 52.4391 128.656 52.7441C128.081 53.0459 127.407 53.1968 126.633 53.1968C125.859 53.1968 125.185 53.0459 124.611 52.7441C124.036 52.4391 123.59 52.0233 123.272 51.4968C122.957 50.967 122.8 50.3651 122.8 49.6908V43.1605H123.994V49.5945C123.994 50.0761 124.1 50.5047 124.312 50.8804C124.524 51.2528 124.826 51.5466 125.217 51.7617C125.612 51.9736 126.084 52.0795 126.633 52.0795C127.182 52.0795 127.654 51.9736 128.049 51.7617C128.444 51.5466 128.746 51.2528 128.954 50.8804C129.166 50.5047 129.272 50.0761 129.272 49.5945V43.1605ZM134.317 43.1605V53.0234H133.123V43.1605H134.317ZM145.153 47.5622V48.6217H140.838V47.5622H145.153ZM151.663 53.0234V43.1605H155.111C155.798 43.1605 156.365 43.2793 156.811 43.5168C157.258 43.7512 157.59 44.0675 157.808 44.4656C158.027 44.8605 158.136 45.2987 158.136 45.7803C158.136 46.2041 158.06 46.5541 157.909 46.8302C157.762 47.1063 157.566 47.3246 157.322 47.4851C157.081 47.6457 156.819 47.7645 156.537 47.8415V47.9378C156.839 47.9571 157.142 48.0631 157.447 48.2557C157.752 48.4483 158.007 48.7244 158.213 49.084C158.418 49.4436 158.521 49.8835 158.521 50.4036C158.521 50.898 158.409 51.3427 158.184 51.7376C157.959 52.1325 157.604 52.4455 157.12 52.6767C156.635 52.9079 156.004 53.0234 155.227 53.0234H151.663ZM152.857 51.9639H155.227C156.007 51.9639 156.561 51.813 156.888 51.5112C157.219 51.2062 157.384 50.837 157.384 50.4036C157.384 50.0697 157.299 49.7615 157.129 49.4789C156.959 49.1932 156.717 48.9652 156.402 48.7951C156.087 48.6217 155.715 48.535 155.285 48.535H152.857V51.9639ZM152.857 47.4948H155.073C155.432 47.4948 155.757 47.4241 156.046 47.2829C156.338 47.1416 156.569 46.9426 156.739 46.6857C156.912 46.4289 156.999 46.1271 156.999 45.7803C156.999 45.3469 156.848 44.9793 156.546 44.6775C156.245 44.3725 155.766 44.22 155.111 44.22H152.857V47.4948ZM160.755 53.0234V43.1605H164.087C164.858 43.1605 165.49 43.2921 165.985 43.5554C166.479 43.8154 166.845 44.1734 167.083 44.6293C167.32 45.0852 167.439 45.6037 167.439 46.1849C167.439 46.766 167.32 47.2813 167.083 47.7308C166.845 48.1802 166.481 48.5334 165.99 48.7903C165.498 49.0439 164.871 49.1707 164.107 49.1707H161.41V48.092H164.068C164.595 48.092 165.018 48.0149 165.339 47.8608C165.664 47.7067 165.898 47.4884 166.043 47.2058C166.19 46.9201 166.264 46.5798 166.264 46.1849C166.264 45.7899 166.19 45.4448 166.043 45.1494C165.895 44.8541 165.659 44.6261 165.335 44.4656C165.01 44.3018 164.582 44.22 164.049 44.22H161.949V53.0234H160.755ZM165.397 48.5928L167.824 53.0234H166.437L164.049 48.5928H165.397ZM170.105 53.0234H168.853L172.475 43.1605H173.707L177.329 53.0234H176.077L173.129 44.7208H173.052L170.105 53.0234ZM170.567 49.1707H175.614V50.2302H170.567V49.1707ZM186.957 43.1605V53.0234H185.802L180.427 45.2795H180.331V53.0234H179.136V43.1605H180.292L185.686 50.9237H185.782V43.1605H186.957ZM192.662 53.0234H189.619V43.1605H192.797C193.754 43.1605 194.573 43.3579 195.253 43.7528C195.934 44.1445 196.456 44.708 196.818 45.4432C197.181 46.1752 197.363 47.0517 197.363 48.0727C197.363 49.1001 197.18 49.9846 196.814 50.7263C196.448 51.4647 195.915 52.033 195.215 52.4311C194.515 52.826 193.664 53.0234 192.662 53.0234ZM190.813 51.9639H192.585C193.401 51.9639 194.077 51.8066 194.613 51.492C195.149 51.1773 195.549 50.7295 195.812 50.1483C196.075 49.5672 196.207 48.8753 196.207 48.0727C196.207 47.2765 196.077 46.591 195.817 46.0163C195.557 45.4384 195.168 44.9953 194.651 44.6871C194.134 44.3757 193.491 44.22 192.72 44.22H190.813V51.9639ZM200.832 43.1605V53.0234H199.637V43.1605H200.832ZM211.319 43.1605V53.0234H210.163L204.788 45.2795H204.692V53.0234H203.498V43.1605H204.653L210.047 50.9237H210.143V43.1605H211.319ZM220.722 46.2426C220.616 45.9184 220.476 45.6278 220.303 45.371C220.133 45.1109 219.929 44.8894 219.691 44.7064C219.457 44.5234 219.19 44.3837 218.892 44.2874C218.593 44.1911 218.266 44.1429 217.909 44.1429C217.325 44.1429 216.794 44.2938 216.315 44.5956C215.837 44.8974 215.457 45.3421 215.174 45.9296C214.891 46.5172 214.75 47.2379 214.75 48.092C214.75 48.946 214.893 49.6668 215.179 50.2543C215.465 50.8418 215.851 51.2865 216.339 51.5883C216.827 51.8901 217.376 52.041 217.987 52.041C218.552 52.041 219.049 51.9206 219.479 51.6798C219.913 51.4358 220.25 51.0923 220.491 50.6492C220.735 50.2029 220.857 49.678 220.857 49.0744L221.223 49.1515H218.256V48.092H222.013V49.1515C222.013 49.9637 221.839 50.6701 221.492 51.2704C221.149 51.8708 220.674 52.3364 220.067 52.6671C219.463 52.9945 218.77 53.1583 217.987 53.1583C217.113 53.1583 216.346 52.9528 215.685 52.5418C215.026 52.1309 214.513 51.5466 214.143 50.7889C213.777 50.0312 213.594 49.1322 213.594 48.092C213.594 47.3118 213.699 46.6103 213.907 45.9874C214.119 45.3613 214.418 44.8284 214.803 44.3885C215.188 43.9487 215.644 43.6116 216.171 43.3772C216.697 43.1428 217.277 43.0256 217.909 43.0256C218.43 43.0256 218.914 43.1043 219.364 43.2616C219.817 43.4157 220.219 43.6356 220.573 43.9214C220.929 44.2039 221.226 44.5426 221.464 44.9375C221.701 45.3292 221.865 45.7643 221.955 46.2426H220.722ZM232.499 47.5622V48.6217H228.184V47.5622H232.499ZM239.009 53.0234V43.1605H244.962V44.22H240.204V47.5526H244.654V48.6121H240.204V51.9639H245.039V53.0234H239.009ZM252.779 45.6262C252.722 45.1382 252.487 44.7593 252.076 44.4897C251.665 44.22 251.161 44.0851 250.564 44.0851C250.128 44.0851 249.745 44.1558 249.418 44.297C249.094 44.4383 248.84 44.6325 248.657 44.8797C248.477 45.127 248.387 45.4079 248.387 45.7225C248.387 45.9858 248.45 46.2121 248.575 46.4016C248.704 46.5878 248.867 46.7435 249.066 46.8687C249.265 46.9907 249.474 47.0918 249.692 47.1721C249.911 47.2492 250.111 47.3118 250.294 47.3599L251.296 47.6296C251.553 47.697 251.839 47.7902 252.153 47.9089C252.471 48.0277 252.775 48.1899 253.064 48.3954C253.356 48.5976 253.597 48.8577 253.786 49.1755C253.975 49.4934 254.07 49.8835 254.07 50.3458C254.07 50.8788 253.93 51.3603 253.651 51.7906C253.375 52.2208 252.971 52.5627 252.438 52.8164C251.908 53.07 251.264 53.1968 250.506 53.1968C249.8 53.1968 249.188 53.0828 248.672 52.8549C248.158 52.6269 247.753 52.3091 247.458 51.9013C247.166 51.4936 247 51.02 246.962 50.4806H248.195C248.227 50.8531 248.352 51.1613 248.57 51.4053C248.792 51.6461 249.071 51.8259 249.408 51.9447C249.749 52.0603 250.115 52.118 250.506 52.118C250.962 52.118 251.372 52.0442 251.734 51.8965C252.097 51.7456 252.385 51.5369 252.596 51.2704C252.808 51.0008 252.914 50.6861 252.914 50.3265C252.914 49.999 252.823 49.7326 252.64 49.5271C252.457 49.3216 252.216 49.1547 251.917 49.0262C251.619 48.8978 251.296 48.7854 250.949 48.6891L249.736 48.3424C248.965 48.1208 248.355 47.8046 247.906 47.3936C247.456 46.9827 247.232 46.4449 247.232 45.7803C247.232 45.2281 247.381 44.7465 247.679 44.3355C247.981 43.9214 248.386 43.6003 248.893 43.3724C249.404 43.1412 249.973 43.0256 250.603 43.0256C251.238 43.0256 251.803 43.1396 252.298 43.3675C252.792 43.5923 253.184 43.9005 253.473 44.2922C253.765 44.6839 253.919 45.1286 253.935 45.6262H252.779ZM255.766 44.22V43.1605H263.163V44.22H260.061V53.0234H258.867V44.22H255.766ZM265.277 53.0234V43.1605H268.61C269.381 43.1605 270.013 43.2921 270.508 43.5554C271.002 43.8154 271.368 44.1734 271.606 44.6293C271.843 45.0852 271.962 45.6037 271.962 46.1849C271.962 46.766 271.843 47.2813 271.606 47.7308C271.368 48.1802 271.004 48.5334 270.512 48.7903C270.021 49.0439 269.393 49.1707 268.629 49.1707H265.932V48.092H268.591C269.117 48.092 269.541 48.0149 269.862 47.8608C270.186 47.7067 270.421 47.4884 270.565 47.2058C270.713 46.9201 270.787 46.5798 270.787 46.1849C270.787 45.7899 270.713 45.4448 270.565 45.1494C270.418 44.8541 270.182 44.6261 269.857 44.4656C269.533 44.3018 269.104 44.22 268.572 44.22H266.472V53.0234H265.277ZM269.92 48.5928L272.347 53.0234H270.96L268.572 48.5928H269.92ZM274.628 53.0234H273.376L276.997 43.1605H278.23L281.852 53.0234H280.6L277.652 44.7208H277.575L274.628 53.0234ZM275.09 49.1707H280.137V50.2302H275.09V49.1707ZM281.968 44.22V43.1605H289.365V44.22H286.263V53.0234H285.069V44.22H281.968ZM291.479 53.0234V43.1605H297.432V44.22H292.674V47.5526H297.124V48.6121H292.674V51.9639H297.509V53.0234H291.479ZM306.598 46.2426C306.492 45.9184 306.352 45.6278 306.179 45.371C306.009 45.1109 305.805 44.8894 305.567 44.7064C305.333 44.5234 305.067 44.3837 304.768 44.2874C304.469 44.1911 304.142 44.1429 303.786 44.1429C303.201 44.1429 302.67 44.2938 302.191 44.5956C301.713 44.8974 301.333 45.3421 301.05 45.9296C300.768 46.5172 300.626 47.2379 300.626 48.092C300.626 48.946 300.769 49.6668 301.055 50.2543C301.341 50.8418 301.728 51.2865 302.216 51.5883C302.704 51.8901 303.253 52.041 303.863 52.041C304.428 52.041 304.925 51.9206 305.356 51.6798C305.789 51.4358 306.126 51.0923 306.367 50.6492C306.611 50.2029 306.733 49.678 306.733 49.0744L307.099 49.1515H304.132V48.092H307.889V49.1515C307.889 49.9637 307.715 50.6701 307.369 51.2704C307.025 51.8708 306.55 52.3364 305.943 52.6671C305.339 52.9945 304.646 53.1583 303.863 53.1583C302.989 53.1583 302.222 52.9528 301.561 52.5418C300.902 52.1309 300.389 51.5466 300.02 50.7889C299.653 50.0312 299.47 49.1322 299.47 48.092C299.47 47.3118 299.575 46.6103 299.784 45.9874C299.995 45.3613 300.294 44.8284 300.679 44.3885C301.065 43.9487 301.52 43.6116 302.047 43.3772C302.574 43.1428 303.153 43.0256 303.786 43.0256C304.306 43.0256 304.79 43.1043 305.24 43.2616C305.693 43.4157 306.096 43.6356 306.449 43.9214C306.805 44.2039 307.102 44.5426 307.34 44.9375C307.577 45.3292 307.741 45.7643 307.831 46.2426H306.598ZM311.4 43.1605V53.0234H310.205V43.1605H311.4ZM314.47 53.0234H313.218L316.84 43.1605H318.073L321.694 53.0234H320.442L317.495 44.7208H317.418L314.47 53.0234ZM314.933 49.1707H319.98V50.2302H314.933V49.1707Z" fill="#1F1F1F"/>
</svg>
