<svg width="60" height="53" viewBox="0 0 60 53" fill="none" xmlns="http://www.w3.org/2000/svg">
<path d="M37.5973 3.19705C47.8278 3.19705 56.1401 11.5094 56.1401 21.7399C56.1401 31.9705 47.8278 40.2828 37.5973 40.2828H27.8782C26.4715 45.6538 21.612 49.746 15.8573 49.746C8.95173 49.746 3.45281 44.1192 3.45281 37.3415H9.71902C9.71902 40.7943 12.5324 43.4798 15.8573 43.4798C19.3102 43.4798 21.9957 40.6664 21.9957 37.3415V34.7839V12.4045H28.2619V34.1444H37.5973C44.5029 34.1444 50.0018 28.5176 50.0018 21.7399C50.0018 14.9622 44.375 9.33537 37.5973 9.33537H21.8678H9.46326V3.19705H21.8678H35.9348H37.5973ZM37.5973 0H35.9348H21.8678H9.46326H6.26621V3.19705V9.33537V12.5324H9.46326H18.7986V34.7839V37.4694C18.6707 39.004 17.3919 40.2828 15.7295 40.2828C14.067 40.2828 12.6603 38.8761 12.6603 37.2136V34.0166H9.46326H3.19705H0V37.2136C0 45.7817 7.0335 52.8152 15.6016 52.8152C19.0544 52.8152 22.5072 51.6643 25.3206 49.4903C27.3667 47.8278 28.9013 45.7817 29.9243 43.4798H37.3415C43.0962 43.4798 48.5951 41.1779 52.6873 37.0857C56.7795 32.9935 59.0814 27.4946 59.0814 21.7399C59.0814 15.9852 56.7795 10.4863 52.6873 6.39409C48.8509 2.17399 43.3519 0 37.5973 0ZM31.4589 12.4045H37.5973H37.9809C42.9683 12.6603 46.9326 16.6246 46.9326 21.612C46.9326 26.5994 42.9683 30.6916 37.9809 30.8195H37.7251H31.5868V12.4045H31.4589Z" fill="white"/>
</svg>
